<svg xmlns="http://www.w3.org/2000/svg" width="38.545" height="46.102" viewBox="0 0 38.545 46.102"><g transform="translate(-41.958)"><g transform="translate(42.633 0.675)"><g transform="translate(0)"><g transform="translate(3.46 19.696)"><path d="M88.771,247.474l4.3-.879a.737.737,0,0,1,.792.365l2.19,3.961a.737.737,0,0,0,1.312-.044l9.479-20.214-9.419-4.417-9.469,20.193A.737.737,0,0,0,88.771,247.474Z" transform="translate(-87.885 -226.246)" fill="#f8ac30"/><path d="M231.634,247.474l-4.3-.879a.737.737,0,0,0-.792.365l-2.19,3.961a.737.737,0,0,1-1.312-.044l-9.479-20.214,9.419-4.417,9.469,20.193a.737.737,0,0,1-.815,1.035Z" transform="translate(-202.245 -226.246)" fill="#f8ac30"/></g><path d="M70.25,8.658l.494.724a2.655,2.655,0,0,0,3.344.9l.79-.38a2.655,2.655,0,0,1,3.8,2.193l.066.874a2.655,2.655,0,0,0,2.448,2.448l.874.066a2.655,2.655,0,0,1,2.193,3.8l-.38.79a2.655,2.655,0,0,0,.9,3.344l.724.494a2.655,2.655,0,0,1,0,4.386l-.724.494a2.655,2.655,0,0,0-.9,3.344l.38.79a2.655,2.655,0,0,1-2.193,3.8l-.874.066a2.655,2.655,0,0,0-2.448,2.448l-.066.874a2.655,2.655,0,0,1-3.8,2.193l-.79-.38a2.655,2.655,0,0,0-3.344.9l-.494.724a2.655,2.655,0,0,1-4.386,0l-.494-.724a2.655,2.655,0,0,0-3.344-.9l-.79.38a2.655,2.655,0,0,1-3.8-2.193l-.066-.874a2.655,2.655,0,0,0-2.448-2.448l-.874-.066a2.655,2.655,0,0,1-2.193-3.8l.38-.79a2.655,2.655,0,0,0-.9-3.344l-.724-.494a2.655,2.655,0,0,1,0-4.386l.724-.494a2.655,2.655,0,0,0,.9-3.344l-.38-.79a2.655,2.655,0,0,1,2.193-3.8l.874-.066a2.655,2.655,0,0,0,2.448-2.448l.066-.874a2.655,2.655,0,0,1,3.8-2.193l.79.38a2.655,2.655,0,0,0,3.344-.9l.494-.724a2.655,2.655,0,0,1,4.386,0Z" transform="translate(-49.46 -7.5)" fill="#f8ac30"/><circle cx="12.494" cy="12.494" r="12.494" transform="translate(6.103 6.103)" fill="#f5faf0"/></g><g transform="translate(10.51 11.407)"><g transform="translate(5.308)"><path d="M228.129,134.3a.263.263,0,0,0-.433,0c-1.03,1.485-5.173,8.144-.067,12.574h.567C233.3,142.439,229.159,135.78,228.129,134.3Z" transform="translate(-225.134 -134.182)" fill="#f8ac30"/></g><g transform="translate(0 4.802)"><g transform="translate(0 0)"><path d="M174.268,194.705c0-5.452-6.312-6.92-7.816-7.192a.23.23,0,0,0-.267.267c.243,1.344,1.442,6.528,5.586,7.615h2.5v-.69Z" transform="translate(-166.181 -187.51)" fill="#f8ac30"/></g><g transform="translate(8.087)"><path d="M264.082,187.78a.23.23,0,0,0-.267-.267c-1.5.272-7.816,1.739-7.816,7.192v.69h2.5c4.145-1.087,5.343-6.27,5.586-7.615Z" transform="translate(-255.999 -187.509)" fill="#f8ac30"/></g></g></g></g><g transform="translate(41.958 0)"><path d="M78.326,16.028a1.968,1.968,0,0,1-.668-2.493,3.858,3.858,0,0,0,.263-3.9,3.848,3.848,0,0,0-3.508-1.721A1.968,1.968,0,0,1,72.588,6.09a3.858,3.858,0,0,0-1.721-3.508,3.848,3.848,0,0,0-3.9.263,1.968,1.968,0,0,1-2.493-.668,3.506,3.506,0,0,0-6.489,0,1.968,1.968,0,0,1-2.493.668,3.857,3.857,0,0,0-3.9-.263A3.848,3.848,0,0,0,49.873,6.09a1.968,1.968,0,0,1-1.825,1.825A3.858,3.858,0,0,0,44.54,9.636a3.848,3.848,0,0,0,.263,3.9,1.968,1.968,0,0,1-.668,2.493,3.858,3.858,0,0,0-2.177,3.245,3.848,3.848,0,0,0,2.177,3.245,1.968,1.968,0,0,1,.668,2.493,3.858,3.858,0,0,0-.263,3.9,3.848,3.848,0,0,0,3.508,1.721,1.968,1.968,0,0,1,1.568.983l-4.063,8.664a1.412,1.412,0,0,0,1.561,1.983l4.3-.879a.061.061,0,0,1,.066.03l2.19,3.961a1.412,1.412,0,0,0,2.514-.084l1.3-2.783a.675.675,0,0,0-1.223-.573l-1.3,2.783a.055.055,0,0,1-.054.035.056.056,0,0,1-.056-.032l-2.19-3.961a1.406,1.406,0,0,0-1.519-.7l-4.3.879a.062.062,0,0,1-.068-.086L50.034,33.9a3.327,3.327,0,0,0,1.561,2.059,3.847,3.847,0,0,0,3.9-.263,1.968,1.968,0,0,1,2.493.668l.494.724c.011.016.023.031.034.047l-.9,1.922a.675.675,0,0,0,1.223.573l.723-1.541a3.322,3.322,0,0,0,3.344,0l3.374,7.2a1.412,1.412,0,0,0,2.514.084l2.19-3.961a.061.061,0,0,1,.066-.03l4.3.879a1.412,1.412,0,0,0,1.561-1.983l-4.063-8.664a1.968,1.968,0,0,1,1.568-.983,3.858,3.858,0,0,0,3.508-1.721,3.848,3.848,0,0,0-.263-3.9,1.968,1.968,0,0,1,.668-2.493A3.858,3.858,0,0,0,80.5,19.273a3.848,3.848,0,0,0-2.177-3.245ZM75.678,40.915a.054.054,0,0,1-.061.022l-4.3-.879a1.406,1.406,0,0,0-1.519.7l-2.19,3.961a.055.055,0,0,1-.056.032.054.054,0,0,1-.054-.035l-3.553-7.576c.011-.016.023-.031.034-.047l.494-.724a1.968,1.968,0,0,1,2.493-.668,3.858,3.858,0,0,0,3.9.263A3.327,3.327,0,0,0,72.428,33.9l3.258,6.947A.054.054,0,0,1,75.678,40.915ZM77.565,21.4A3.311,3.311,0,0,0,76.441,25.6c.135.432,1.015,1.418.31,2.638s-1.989.948-2.439,1.05a3.311,3.311,0,0,0-3.071,3.071c-.1.442.17,1.735-1.05,2.439s-2.2-.173-2.638-.31a3.31,3.31,0,0,0-4.194,1.124c-.3.3-.685,1.588-2.129,1.588s-1.8-1.26-2.129-1.588a3.311,3.311,0,0,0-2.741-1.458c-1.83,0-2.513,1.556-4.091.645a1.952,1.952,0,0,1-.984-1.566l-.066-.874a3.311,3.311,0,0,0-3.071-3.071c-.446-.1-1.735.17-2.439-1.05s.173-2.2.31-2.638A3.31,3.31,0,0,0,44.9,21.4c-.336-.31-1.588-.721-1.588-2.129s1.249-1.816,1.588-2.129a3.31,3.31,0,0,0,1.124-4.194c-.135-.432-1.015-1.418-.31-2.638s1.989-.949,2.439-1.05A3.311,3.311,0,0,0,51.22,6.191c.1-.442-.17-1.735,1.05-2.439s2.2.173,2.638.311A3.311,3.311,0,0,0,59.1,2.938c.307-.333.721-1.588,2.129-1.588S63.047,2.6,63.36,2.938a3.311,3.311,0,0,0,4.194,1.124c.432-.135,1.418-1.015,2.638-.311s.949,1.989,1.05,2.439a3.311,3.311,0,0,0,3.071,3.071c.446.1,1.735-.17,2.439,1.05s-.173,2.2-.311,2.638a3.31,3.31,0,0,0,1.124,4.194c.333.307,1.588.721,1.588,2.129S77.9,21.089,77.565,21.4Z" transform="translate(-41.958 0)"/><path d="M122.908,67.779A13.169,13.169,0,1,0,135.94,82.855a.675.675,0,1,0-1.336-.194,11.822,11.822,0,1,1,.051-3.028A.675.675,0,0,0,136,79.485a13.147,13.147,0,0,0-13.089-11.706Z" transform="translate(-103.635 -61.676)"/><path d="M176.191,132.555a.905.905,0,0,0-1.052-1.052,14.615,14.615,0,0,0-4.381,1.552,15.648,15.648,0,0,0-2.543-5.964.939.939,0,0,0-1.543,0,15.648,15.648,0,0,0-2.543,5.964,14.616,14.616,0,0,0-4.381-1.552.906.906,0,0,0-1.052,1.052,11.844,11.844,0,0,0,3.527,6.819h-2.207a.675.675,0,0,0,0,1.35h14.856a.675.675,0,0,0,0-1.35h-2.207A11.845,11.845,0,0,0,176.191,132.555Zm-8.748-4.181a13.529,13.529,0,0,1,2.064,5.517,7.27,7.27,0,0,0-2.064,2.491,7.271,7.271,0,0,0-2.064-2.491A13.529,13.529,0,0,1,167.443,128.374Zm-7.28,4.6c3.475.823,6.6,2.83,6.6,6.389v.015h-1.725C161.833,138.479,160.572,134.673,160.163,132.97Zm7.955,6.4v-.015c0-3.553,3.12-5.565,6.6-6.389-.409,1.7-1.67,5.509-4.879,6.4Z" transform="translate(-148.17 -115.28)"/></g></g></svg>