<svg xmlns="http://www.w3.org/2000/svg" width="63.835" height="40.38" viewBox="0 0 63.835 40.38"><path d="M81.668,102.079H43.287a1.066,1.066,0,0,0-1.066,1.066v22.389h3.2a2.132,2.132,0,0,1,0,4.264h-3.2V133a1.066,1.066,0,0,0,1.066,1.066H82.734V103.145A1.066,1.066,0,0,0,81.668,102.079Z" transform="translate(-36.957 -101.079)" fill="#ffdc64"></path><path d="M379.959,238.9H367.165v14.926h17.058V243.162A4.265,4.265,0,0,0,379.959,238.9Z" transform="translate(-321.388 -220.84)" fill="#ffdc64"></path><path d="M367.165,264.551h11.55a2.132,2.132,0,0,1,2.132,2.132v9.6H367.165Z" transform="translate(-321.388 -243.295)" fill="#ffc850"></path><path d="M375.694,136.284h-8.529v4.265h11.728v-1.066A3.2,3.2,0,0,0,375.694,136.284Z" transform="translate(-321.388 -131.02)" fill="#ffdc64"></path><path d="M379.959,179.018l-2.132-8.529H367.165v8.529Z" transform="translate(-321.388 -160.96)" fill="#b4e6ff"></path><path d="M469.779,273.1h4.265v4.265h-2.132a2.132,2.132,0,0,1-2.132-2.132V273.1Z" transform="translate(-411.208 -250.78)" fill="#f1f4fb"></path><path d="M374.628,298.756a8.524,8.524,0,0,0-7.463,4.4v3.06h15.918A8.525,8.525,0,0,0,374.628,298.756Z" transform="translate(-321.388 -273.235)" fill="#e1a546"></path><path d="M476.9,320.412v4.763h2.236A8.508,8.508,0,0,0,476.9,320.412Z" transform="translate(-417.445 -292.191)" fill="#ffc850"></path><ellipse cx="5.331" cy="5.331" rx="5.331" ry="5.331" transform="translate(47.909 28.719)" fill="#5b5d6e"></ellipse><path d="M371.43,173.687h7.2l-.8-3.2H367.166v8.529h3.2v-4.265A1.066,1.066,0,0,1,371.43,173.687Z" transform="translate(-321.389 -160.96)" fill="#9bd6ff"></path><path d="M55.015,298.756a8.508,8.508,0,0,0-6.652,3.2H42.221v3.2a1.066,1.066,0,0,0,1.066,1.066H82.734v-4.265H61.667A8.508,8.508,0,0,0,55.015,298.756Z" transform="translate(-36.957 -273.235)" fill="#ffc850"></path><ellipse cx="5.331" cy="5.331" rx="5.331" ry="5.331" transform="translate(12.727 28.719)" fill="#5b5d6e"></ellipse><path d="M59.366,111.18l-1.653-6.612a1,1,0,0,0,.791-.977v-1.066a4.2,4.2,0,0,0-4.2-4.2h-7.53v-2.2a2.068,2.068,0,0,0-2.066-2.066H6.33a2.068,2.068,0,0,0-2.066,2.066v18.124a1,1,0,0,0,2,0V96.128a.067.067,0,0,1,.067-.067H44.711a.067.067,0,0,1,.067.067v18.125a1,1,0,0,0,2,0v-1.133h11.8a3.271,3.271,0,0,1,3.106,2.266H58.57a1,1,0,0,0-1,1v2.132a3.135,3.135,0,0,0,3.132,3.132h1.133v4.4H59.222a6.328,6.328,0,0,0-11.965,0h-.481v-7.53a1,1,0,0,0-2,0v7.529H24.04a6.328,6.328,0,0,0-11.965,0H6.33a.067.067,0,0,1-.067-.067v-2.2h4.331a1,1,0,1,0,0-2H1a1,1,0,1,0,0,2H4.265v2.2a2.068,2.068,0,0,0,2.066,2.066h5.4c0,.022,0,.044,0,.067a6.33,6.33,0,0,0,12.66,0c0-.022,0-.044,0-.067H46.911c0,.022,0,.044,0,.067a6.33,6.33,0,0,0,12.66,0c0-.022,0-.044,0-.067h3.267a1,1,0,0,0,1-1V116.384A5.272,5.272,0,0,0,59.366,111.18Zm-12.589-6.59h8.881l1.633,6.53H46.777v-6.53Zm7.53-4.264a2.2,2.2,0,0,1,2.2,2.2v.067H46.777v-2.266ZM18.058,132.443a4.331,4.331,0,1,1,4.331-4.331A4.336,4.336,0,0,1,18.058,132.443Zm35.182,0a4.331,4.331,0,1,1,4.331-4.331A4.336,4.336,0,0,1,53.24,132.443ZM60.7,119.649a1.134,1.134,0,0,1-1.133-1.133v-1.133h2.266v2.266H60.7Z" transform="translate(0 -94.062)"></path><path d="M130.333,350.6a2.066,2.066,0,1,0,2.066,2.066A2.068,2.068,0,0,0,130.333,350.6Z" transform="translate(-112.275 -318.613)"></path><path d="M412.521,350.6a2.066,2.066,0,1,0,2.066,2.066A2.068,2.068,0,0,0,412.521,350.6Z" transform="translate(-359.281 -318.613)"></path><path d="M205.228,317.391a1,1,0,0,0,1,1h14.926a1,1,0,1,0,0-2H206.227A1,1,0,0,0,205.228,317.391Z" transform="translate(-179.641 -288.672)"></path><path d="M18.1,284.186H30.9a1,1,0,1,0,0-2H18.1a1,1,0,1,0,0,2Z" transform="translate(-14.97 -258.732)"></path><path d="M160.588,171.316,151.7,180.2l-4.624-4.624a1,1,0,0,0-1.413,1.413l5.331,5.331a1,1,0,0,0,1.413,0l9.6-9.6a1,1,0,0,0-1.413-1.413Z" transform="translate(-127.245 -161.428)"></path></svg>