<svg xmlns="http://www.w3.org/2000/svg" width="39.256" height="59.012" viewBox="0 0 39.256 59.012"><path d="M130.182,111.6a.985.985,0,0,0-.985-.964H95.645a.985.985,0,0,0-.985.964l-.943,43.365a.986.986,0,0,0,.985,1.007H130.14a.985.985,0,0,0,.985-1.007Z" transform="translate(-92.793 -97.88)" fill="#b4e66e"></path><path d="M110.667,152.025a10.841,10.841,0,0,1-10.839-11.077l.659-30.317H95.645a.985.985,0,0,0-.985.964l-.943,43.365a.986.986,0,0,0,.985,1.007H130.14a.986.986,0,0,0,.985-1.007l-.064-2.935Z" transform="translate(-92.793 -97.88)" fill="#a0d755"></path><g transform="translate(10.758 16.693)"><circle cx="1.971" cy="1.971" r="1.971" fill="#ffdc64"></circle><circle cx="1.971" cy="1.971" r="1.971" transform="translate(13.798)" fill="#ffdc64"></circle></g><path d="M124.012,13.7a1.92,1.92,0,0,0-1.909-1.868H113.15v-4a7.823,7.823,0,1,0-15.646,0v4H88.551A1.92,1.92,0,0,0,86.642,13.7L85.7,57.061a1.909,1.909,0,0,0,1.909,1.951h35.437a1.909,1.909,0,0,0,1.909-1.951Zm-11.786,3.922a1.047,1.047,0,1,1-1.047,1.047A1.048,1.048,0,0,1,112.226,17.617ZM123.09,57.145a.059.059,0,0,1-.044.018H87.609a.062.062,0,0,1-.062-.063l.943-43.365a.062.062,0,0,1,.062-.06H97.5v2.246a2.9,2.9,0,1,0,1.848,0V13.675h8.932a.924.924,0,0,0,0-1.848H99.352v-4a5.975,5.975,0,1,1,11.95,0v8.1a2.9,2.9,0,1,0,1.848,0V13.675H122.1a.062.062,0,0,1,.062.06l.943,43.365A.058.058,0,0,1,123.09,57.145ZM98.428,17.617a1.047,1.047,0,1,1-1.047,1.047A1.048,1.048,0,0,1,98.428,17.617Z" transform="translate(-85.699)"></path><path d="M362.04,461.762h-1.971a.924.924,0,0,0,0,1.848h1.971a.924.924,0,0,0,0-1.848Z" transform="translate(-327.628 -408.541)"></path><path d="M144.294,461.762H120.64a.924.924,0,1,0,0,1.848h23.654a.924.924,0,0,0,0-1.848Z" transform="translate(-115.795 -408.541)"></path><path d="M171.294,258.749a.924.924,0,0,0,1.307,0l17.74-17.74a.924.924,0,0,0-1.307-1.307l-17.74,17.74A.924.924,0,0,0,171.294,258.749Z" transform="translate(-161.189 -211.836)"></path><path d="M167.338,240.615a4.866,4.866,0,1,0-4.866-4.866A4.872,4.872,0,0,0,167.338,240.615Zm0-7.885a3.018,3.018,0,1,1-3.018,3.018A3.022,3.022,0,0,1,167.338,232.73Z" transform="translate(-153.623 -204.271)"></path><path d="M269.952,333.495a4.866,4.866,0,1,0,4.866,4.866A4.872,4.872,0,0,0,269.952,333.495Zm0,7.885a3.018,3.018,0,1,1,3.018-3.018A3.022,3.022,0,0,1,269.952,341.38Z" transform="translate(-244.41 -295.057)"></path></svg>