<svg xmlns="http://www.w3.org/2000/svg" width="59.012" height="56.972" viewBox="0 0 59.012 56.972"><ellipse cx="17.334" cy="17.334" rx="17.334" ry="17.334" transform="translate(18.291 6.054)" fill="#fafdf7"></ellipse><path d="M55.18,113.03l-10.208-5.742a3.059,3.059,0,0,0-3.663.5l-3.585,3.585a3.056,3.056,0,0,1-3.981.3A67.784,67.784,0,0,1,20.117,98.053a3.056,3.056,0,0,1,.3-3.981l3.585-3.585a3.059,3.059,0,0,0,.5-3.663L18.767,76.617a3.06,3.06,0,0,0-4.856-.548L10.131,79.85c-4.927,4.927.44,18.282,11.987,29.83s24.9,16.914,29.83,11.987l3.781-3.781A3.06,3.06,0,0,0,55.18,113.03Z" transform="translate(-7.345 -67.481)" fill="#b4e66e"></path><g transform="translate(5.401 7.638)"><path d="M55.511,93.1l2.609-2.609a3.059,3.059,0,0,0,.5-3.663L52.881,76.617a3.06,3.06,0,0,0-4.856-.548l-1.166,1.166Z" transform="translate(-46.859 -75.119)" fill="#a0d755"></path><path d="M272.054,354.323l2.609-2.609a3.059,3.059,0,0,1,3.663-.5l10.208,5.742a3.06,3.06,0,0,1,.548,4.856l-1.166,1.166Z" transform="translate(-246.099 -319.042)" fill="#a0d755"></path></g><path d="M48.3,104.852,38.1,99.11a4.028,4.028,0,0,0-4.807.66L29.7,103.355a2.111,2.111,0,0,1-2.735.213,66.819,66.819,0,0,1-13.43-13.43,2.111,2.111,0,0,1,.213-2.735l3.585-3.585A4.028,4.028,0,0,0,18,79.011L12.256,68.8a3.873,3.873,0,0,0-2.875-1.948,4.112,4.112,0,0,0-3.49,1.192L2.11,71.828C-.561,74.5-.7,79.281,1.715,85.293,4.026,91.044,8.424,97.336,14.1,103.01s11.966,10.072,17.717,12.382a20.906,20.906,0,0,0,7.621,1.715A7.966,7.966,0,0,0,45.279,115l3.781-3.781a4.114,4.114,0,0,0,1.192-3.49A3.873,3.873,0,0,0,48.3,104.852Zm-.6,5.013-.661.661-8.7-4.747a.956.956,0,0,0-.915,1.678l8.209,4.478-1.711,1.711c-2.065,2.065-6.22,2.055-11.4-.027-5.517-2.217-11.582-6.465-17.078-11.961S5.706,90.1,3.489,84.58C1.407,79.4,1.4,75.245,3.462,73.18l1.711-1.711.915,1.678a.956.956,0,1,0,1.678-.915L6.582,70.06l.661-.661a2.234,2.234,0,0,1,1.582-.67,2.194,2.194,0,0,1,.3.02,1.976,1.976,0,0,1,1.469.991l5.742,10.208a2.11,2.11,0,0,1-.346,2.518L14.28,84.172,9.8,75.966a.956.956,0,0,0-1.678.915l4.746,8.7-.47.47a4.034,4.034,0,0,0-.4,5.227A68.719,68.719,0,0,0,25.829,105.1a4.034,4.034,0,0,0,5.227-.4l.47-.47,2.171,1.184a.956.956,0,0,0,.915-1.678l-1.677-.915,1.706-1.706a2.11,2.11,0,0,1,2.518-.346l10.208,5.742a1.976,1.976,0,0,1,.991,1.469A2.217,2.217,0,0,1,47.708,109.864Z" transform="translate(0 -60.135)"></path><path d="M312.838,141.565a.956.956,0,0,0-1.14.726l-2.039,9.177a.956.956,0,0,0,.933,1.163h6.181v3.123a.956.956,0,1,0,1.912,0v-3.123h1.083a.956.956,0,0,0,0-1.912h-1.083V142.5a.956.956,0,1,0-1.912,0v8.221h-4.99l1.781-8.013A.956.956,0,0,0,312.838,141.565Z" transform="translate(-273.948 -126.248)"></path><path d="M216.776,150.4c-2.087,1.139-4.452,2.429-4.452,5.352a.956.956,0,0,0,.956.956h8.157a.956.956,0,1,0,0-1.912H214.4c.416-1.1,1.593-1.791,3.29-2.718,2.095-1.143,4.7-2.565,4.7-5.794a5.043,5.043,0,0,0-10.069,0,.956.956,0,1,0,1.912,0,3.138,3.138,0,0,1,6.245,0C220.481,148.24,219.081,149.144,216.776,150.4Z" transform="translate(-187.852 -126.249)"></path><path d="M179.025,48.63,177.163,49a23.389,23.389,0,1,0-35.439-30.219.956.956,0,1,0,1.563,1.1,21.476,21.476,0,1,1,32.358,27.923l.426-2.131A.956.956,0,0,0,174.2,45.3l-1.02,5.1a.956.956,0,0,0,1.125,1.125l5.1-1.02a.956.956,0,1,0-.375-1.875Z" transform="translate(-125.235 -8.846)"></path><path d="M301.745,44.232a.956.956,0,0,0-.956.956v2.039a.956.956,0,1,0,1.912,0V45.188A.956.956,0,0,0,301.745,44.232Z" transform="translate(-266.121 -40.154)"></path><path d="M442.333,204.425a.956.956,0,0,0,.956.956h2.039a.956.956,0,1,0,0-1.912h-2.039A.956.956,0,0,0,442.333,204.425Z" transform="translate(-391.351 -181.037)"></path><path d="M163.363,125.633l1.766,1.02a.956.956,0,0,0,.956-1.656l-1.766-1.02a.956.956,0,0,0-.956,1.656Z" transform="translate(-144.111 -110.594)"></path><path d="M423.848,276.025l1.766,1.02a.956.956,0,0,0,.956-1.656l-1.766-1.02a.956.956,0,1,0-.956,1.656Z" transform="translate(-374.573 -243.653)"></path><path d="M372.517,69.243a.956.956,0,0,0,.829-.478L374.365,67a.956.956,0,0,0-1.656-.956l-1.02,1.766a.956.956,0,0,0,.827,1.434Z" transform="translate(-328.737 -59.028)"></path><path d="M222.316,326.527l-1.02,1.766a.956.956,0,1,0,1.656.956l1.02-1.766a.956.956,0,1,0-1.656-.956Z" transform="translate(-195.677 -289.489)"></path><path d="M425.614,123.978,423.848,125a.956.956,0,1,0,.956,1.656l1.766-1.02a.956.956,0,0,0-.956-1.656Z" transform="translate(-374.574 -110.595)"></path><path d="M163.013,276.694a.956.956,0,0,0,1.306.35l1.766-1.02a.956.956,0,1,0-.956-1.656l-1.766,1.02A.956.956,0,0,0,163.013,276.694Z" transform="translate(-144.111 -243.652)"></path><path d="M223.145,69.243a.956.956,0,0,0,.827-1.434l-1.02-1.766A.956.956,0,0,0,221.3,67l1.02,1.766A.956.956,0,0,0,223.145,69.243Z" transform="translate(-195.677 -59.028)"></path><path d="M372.038,326.178a.956.956,0,0,0-.35,1.306l1.02,1.766a.956.956,0,1,0,1.656-.956l-1.02-1.766A.956.956,0,0,0,372.038,326.178Z" transform="translate(-328.735 -289.49)"></path></svg>