<svg xmlns="http://www.w3.org/2000/svg" width="59.011" height="59.011" viewBox="0 0 59.011 59.011"><g transform="translate(-318 -3520)"><g transform="translate(318 3520)"><circle cx="19.373" cy="19.373" r="19.373" transform="translate(10.133 10.133)" fill="#ffc850"></circle><circle cx="16.314" cy="16.314" r="16.314" transform="translate(13.192 13.192)" fill="#ffdc64"></circle><circle cx="3.059" cy="3.059" r="3.059" transform="translate(34.604 19.309)" fill="#fff082"></circle><path d="M151.191,171.993A14.354,14.354,0,0,1,139.4,159.725a14.209,14.209,0,0,1,.612-6.285,1.062,1.062,0,0,0-1.614-1.2,14.265,14.265,0,1,0,18.438,21.539,1.062,1.062,0,0,0-.92-1.789A14.138,14.138,0,0,1,151.191,171.993Z" transform="translate(-116.916 -134.529)" fill="#ffc850"></path><path d="M99.949,120.278A20.329,20.329,0,1,0,79.62,99.949,20.352,20.352,0,0,0,99.949,120.278Zm0-38.746A18.417,18.417,0,1,1,81.532,99.949,18.438,18.438,0,0,1,99.949,81.532Z" transform="translate(-70.443 -70.443)"></path><path d="M187.691,167.727a.956.956,0,1,0-1.912,0c0,2.588,3.066,4.655,7.138,4.937v1.117a.956.956,0,0,0,1.912,0v-1.117c4.072-.282,7.137-2.348,7.137-4.937,0-3.467-3.3-4.82-7.137-5.892v-7.453c3.123.251,5.226,1.7,5.226,3.021a.956.956,0,1,0,1.912,0c0-2.588-3.066-4.655-7.137-4.937v-1.117a.956.956,0,0,0-1.912,0v1.117c-4.072.282-7.138,2.348-7.138,4.937,0,3.467,3.3,4.82,7.138,5.892v7.453C189.793,170.5,187.691,169.043,187.691,167.727Zm12.363,0c0,1.316-2.1,2.77-5.226,3.021v-6.921C198.705,164.972,200.054,166.012,200.054,167.727ZM187.691,157.4c0-1.316,2.1-2.77,5.226-3.021V161.3C189.039,160.158,187.691,159.118,187.691,157.4Z" transform="translate(-164.367 -133.059)"></path><path d="M89.5,8.642A29.506,29.506,0,0,0,46.631,9.854l.524-3.665a.956.956,0,0,0-1.893-.27l-1.02,7.138A.956.956,0,0,0,45.491,14.1l6.118-2.039a.956.956,0,1,0-.6-1.814L47.931,11.27A27.594,27.594,0,1,1,88.152,49.018,27.414,27.414,0,0,1,68.64,57.1a.956.956,0,1,0,0,1.912A29.506,29.506,0,0,0,89.5,8.642Z" transform="translate(-39.135 0)"></path><path d="M205.683,491.665c-.325-.047-.652-.1-.973-.157a.956.956,0,1,0-.338,1.882c.343.062.693.118,1.041.168a.969.969,0,0,0,.137.01.956.956,0,0,0,.134-1.9Z" transform="translate(-180.12 -434.845)"></path><path d="M157.391,477.919c-.6-.2-1.2-.419-1.792-.658a.956.956,0,1,0-.721,1.771c.628.256,1.273.493,1.917.7a.956.956,0,1,0,.6-1.817Z" transform="translate(-136.5 -422.19)"></path><path d="M4.87,286.6c-.135-.619-.25-1.25-.342-1.877A.956.956,0,0,0,2.636,285c.1.671.221,1.346.366,2.008A.956.956,0,1,0,4.87,286.6Z" transform="translate(-2.323 -251.187)"></path><path d="M5.62,185.805a.955.955,0,0,0,1.125-.749c.125-.621.273-1.246.441-1.857a.956.956,0,1,0-1.844-.506c-.179.653-.338,1.322-.471,1.986A.956.956,0,0,0,5.62,185.805Z" transform="translate(-4.293 -161.015)"></path><path d="M17.882,336.017c-.26-.577-.5-1.171-.724-1.765a.956.956,0,1,0-1.793.663c.235.635.5,1.27.774,1.888a.956.956,0,0,0,1.743-.786Z" transform="translate(-13.542 -295.174)"></path><path d="M.964,236.52a.956.956,0,0,0,.948-.963c0-.077,0-.154,0-.23,0-.559.017-1.124.05-1.68a.956.956,0,0,0-1.908-.115c-.035.594-.054,1.2-.054,1.8q0,.122,0,.244a.956.956,0,0,0,.956.948Z" transform="translate(0 -205.821)"></path><path d="M112.13,454.16c-.547-.318-1.091-.659-1.617-1.015a.956.956,0,0,0-1.072,1.583c.562.38,1.144.745,1.729,1.085a.956.956,0,1,0,.96-1.653Z" transform="translate(-96.456 -400.772)"></path><path d="M39.778,380.076a.956.956,0,0,0-1.617,1.02c.361.573.747,1.141,1.147,1.688a.956.956,0,0,0,1.543-1.129C40.477,381.143,40.116,380.612,39.778,380.076Z" transform="translate(-33.632 -335.875)"></path><path d="M72.735,421.6c-.471-.424-.933-.87-1.374-1.325a.956.956,0,1,0-1.373,1.33c.471.487.965.963,1.469,1.416a.956.956,0,1,0,1.279-1.421Z" transform="translate(-61.683 -371.577)"></path><path d="M20.763,144.3a.955.955,0,0,0,1.257-.5c.13-.3.266-.6.407-.9a.956.956,0,0,0-1.727-.821c-.15.316-.3.639-.435.959A.956.956,0,0,0,20.763,144.3Z" transform="translate(-17.86 -125.228)"></path></g></g></svg>